<svg width="24" height="24" viewBox="0 0 24 24" fill="none" xmlns="http://www.w3.org/2000/svg">
<path d="M17.9099 5H5.90994L7.20994 3.71C7.39824 3.5217 7.50403 3.2663 7.50403 3C7.50403 2.7337 7.39824 2.47831 7.20994 2.29C7.02164 2.1017 6.76624 1.99591 6.49994 1.99591C6.23364 1.99591 5.97824 2.1017 5.78994 2.29L2.78994 5.29C2.69621 5.38297 2.62182 5.49357 2.57105 5.61543C2.52028 5.73728 2.49414 5.86799 2.49414 6C2.49414 6.13201 2.52028 6.26272 2.57105 6.38458C2.62182 6.50644 2.69621 6.61704 2.78994 6.71L5.78994 9.71C5.8829 9.80373 5.9935 9.87812 6.11536 9.92889C6.23722 9.97966 6.36793 10.0058 6.49994 10.0058C6.63195 10.0058 6.76266 9.97966 6.88452 9.92889C7.00637 9.87812 7.11698 9.80373 7.20994 9.71C7.30367 9.61704 7.37806 9.50644 7.42883 9.38458C7.4796 9.26272 7.50574 9.13201 7.50574 9C7.50574 8.86799 7.4796 8.73728 7.42883 8.61543C7.37806 8.49357 7.30367 8.38297 7.20994 8.29L5.90994 7H17.9099C18.1148 6.99602 18.3185 7.03245 18.5093 7.10719C18.7 7.18194 18.8742 7.29354 19.0219 7.43562C19.1695 7.5777 19.2878 7.74748 19.3698 7.93525C19.4518 8.12303 19.496 8.32513 19.4999 8.53V11C19.4999 11.2652 19.6053 11.5196 19.7928 11.7071C19.9804 11.8946 20.2347 12 20.4999 12C20.7652 12 21.0195 11.8946 21.207 11.7071C21.3946 11.5196 21.4999 11.2652 21.4999 11V8.53C21.496 8.06249 21.4 7.60033 21.2175 7.16991C21.035 6.73949 20.7694 6.34925 20.4361 6.02145C20.1027 5.69366 19.708 5.43474 19.2746 5.25948C18.8412 5.08422 18.3774 4.99605 17.9099 5ZM18.2099 14.29C18.0216 14.1017 17.7662 13.9959 17.4999 13.9959C17.2336 13.9959 16.9782 14.1017 16.7899 14.29C16.6016 14.4783 16.4958 14.7337 16.4958 15C16.4958 15.2663 16.6016 15.5217 16.7899 15.71L18.0899 17H6.08994C5.88507 17.004 5.68142 16.9676 5.49063 16.8928C5.29983 16.8181 5.12564 16.7065 4.97798 16.5644C4.83033 16.4223 4.71212 16.2525 4.63009 16.0648C4.54807 15.877 4.50384 15.6749 4.49994 15.47V13C4.49994 12.7348 4.39458 12.4804 4.20705 12.2929C4.01951 12.1054 3.76516 12 3.49994 12C3.23472 12 2.98037 12.1054 2.79283 12.2929C2.6053 12.4804 2.49994 12.7348 2.49994 13V15.47C2.50386 15.9375 2.59983 16.3997 2.78237 16.8301C2.96492 17.2605 3.23045 17.6508 3.56382 17.9786C3.89718 18.3063 4.29185 18.5653 4.72528 18.7405C5.15872 18.9158 5.62243 19.004 6.08994 19H18.0899L16.7899 20.29C16.6962 20.383 16.6218 20.4936 16.571 20.6154C16.5203 20.7373 16.4941 20.868 16.4941 21C16.4941 21.132 16.5203 21.2627 16.571 21.3846C16.6218 21.5064 16.6962 21.617 16.7899 21.71C16.8829 21.8037 16.9935 21.8781 17.1154 21.9289C17.2372 21.9797 17.3679 22.0058 17.4999 22.0058C17.632 22.0058 17.7627 21.9797 17.8845 21.9289C18.0064 21.8781 18.117 21.8037 18.2099 21.71L21.2099 18.71C21.3037 18.617 21.3781 18.5064 21.4288 18.3846C21.4796 18.2627 21.5057 18.132 21.5057 18C21.5057 17.868 21.4796 17.7373 21.4288 17.6154C21.3781 17.4936 21.3037 17.383 21.2099 17.29L18.2099 14.29Z" fill="#898989"/>
</svg>
