<svg width="17" height="19" viewBox="0 0 17 19" fill="none" xmlns="http://www.w3.org/2000/svg">
<path d="M14.725 3.55646V16.3973H5.53214V3.55646H14.725ZM16.2571 2H4V18.3429H16.2571V2ZM6.68125 5.11293H13.5759V6.66939H6.68125V5.11293ZM6.68125 7.83673H13.5759V9.3932H6.68125V7.83673ZM6.68125 10.5605H13.5759V12.117H6.68125V10.5605ZM6.68125 13.2844H13.5759V14.8408H6.68125V13.2844Z" fill="#898989"/>
<circle cx="5" cy="5" r="5" fill="white"/>
<path d="M5 3C3.20509 3 1.83927 4.112 1 5.54545C1.83927 6.97891 3.20509 8.09091 5 8.09091C6.79491 8.09091 8.16109 6.97891 9 5.54545C8.16109 4.112 6.79455 3 5 3ZM5 7.36364C3.43273 7.36364 2.45127 6.37709 1.864 5.54545C2.45127 4.71382 3.43273 3.72727 5 3.72727C6.56764 3.72727 7.54909 4.71382 8.136 5.54545C7.54909 6.37709 6.56764 7.36364 5 7.36364Z" fill="#898989"/>
<path d="M4.99997 6.63635C5.60246 6.63635 6.09088 6.14793 6.09088 5.54544C6.09088 4.94295 5.60246 4.45453 4.99997 4.45453C4.39747 4.45453 3.90906 4.94295 3.90906 5.54544C3.90906 6.14793 4.39747 6.63635 4.99997 6.63635Z" fill="#898989"/>
</svg>
