<svg width="71" height="74" viewBox="0 0 71 74" fill="none" xmlns="http://www.w3.org/2000/svg">
<path d="M70.8209 3.70001V60.3565H0.135254V15.9563L18.7509 0H66.6391C68.9324 0 70.8209 1.73438 70.8209 3.70001Z" fill="#EFF2F3"/>
<path d="M14.8388 15.9563H0.27002L18.7508 0L18.6159 12.4875C18.7508 14.4532 16.9972 15.9563 14.8388 15.9563Z" fill="#DADEDE"/>
<path d="M42.3574 32.3746C38.4454 29.1371 35.6126 25.4371 35.6126 25.4371C36.6918 24.0496 39.2548 16.0714 35.3428 13.7589C31.4308 11.4464 29.4074 15.7246 29.4074 15.7246C27.6537 21.0433 31.8355 25.8996 31.8355 25.8996L27.1142 34.8028C26.5746 34.8028 11.6011 39.7747 16.7271 45.9028C21.9881 52.0309 29.2725 37.2309 29.2725 37.2309C32.1053 36.4215 40.7387 35.3809 40.7387 35.3809C44.1111 39.3122 48.158 40.584 48.158 40.584C54.3632 41.9715 55.0377 37.5778 55.0377 37.5778C55.1726 31.7965 42.3574 32.3746 42.3574 32.3746ZM19.2902 43.8215C19.1553 43.8215 19.1553 43.7059 19.1553 43.7059C18.3459 42.0872 24.5511 38.9653 24.5511 38.9653C24.5511 38.9653 21.1787 44.5153 19.2902 43.8215ZM33.3194 15.8402C35.073 17.2277 33.5892 21.9683 33.5892 21.9683C33.5892 21.9683 31.5657 17.2277 33.3194 15.8402ZM31.7006 33.7621L34.1288 28.6746L37.9059 32.6059L31.7006 33.7621ZM51.6653 37.4621C50.5861 38.9653 46.1345 35.7278 45.7298 35.3809C46.4043 35.3809 52.2049 35.7278 51.6653 37.4621ZM70.8206 56.656V70.2998C70.8206 72.2654 68.932 73.9998 66.5039 73.9998H4.31668C2.02344 73.9998 0 72.381 0 70.2998V56.656H70.8206Z" fill="#F2786B"/>
<path d="M29.9467 62.6682C29.9467 63.5932 29.542 64.2869 28.8676 64.8651C28.1931 65.3276 27.1139 65.5588 25.7649 65.5588H24.6858V68.9119H22.9321V60.0088H26.0347C27.3837 60.0088 28.328 60.24 29.0025 60.7025C29.6769 61.165 29.9467 61.7432 29.9467 62.6682ZM24.8207 64.4026H25.7649C26.5743 64.4026 27.2488 64.2869 27.6535 64.0557C28.0582 63.8244 28.328 63.3619 28.328 62.7838C28.328 62.3213 28.1931 61.8588 27.7884 61.6275C27.3837 61.3963 26.8441 61.2807 26.0347 61.2807H24.8207V64.4026ZM40.6035 64.4026C40.6035 65.9057 40.064 67.0619 39.1197 67.7557C38.1754 68.5651 36.8264 68.9119 34.9379 68.9119H31.9702V60.0088H35.2077C36.8264 60.0088 38.1754 60.3557 39.1197 61.165C40.064 61.8588 40.6035 63.015 40.6035 64.4026ZM38.715 64.4026C38.715 62.2057 37.5009 61.165 35.2077 61.165H33.7238V67.6401H34.9379C37.5009 67.7557 38.715 66.5994 38.715 64.4026ZM44.5155 68.9119H42.7619V60.0088H48.6973V61.2807H44.5155V64.0557H48.4275V65.3276H44.5155V68.9119Z" fill="#EFF2F3"/>
</svg>
