<svg width="35" height="35" viewBox="0 0 35 35" fill="none" xmlns="http://www.w3.org/2000/svg">
<circle cx="17.5" cy="17.5" r="17" stroke="#454545"/>
<path d="M20.8333 22.5556H12.1667C11.7694 22.5556 11.4444 22.2306 11.4444 21.8333V13.1667C11.4444 12.7694 11.7694 12.4444 12.1667 12.4444H15.7778C16.175 12.4444 16.5 12.1194 16.5 11.7222C16.5 11.325 16.175 11 15.7778 11H11.4444C10.6428 11 10 11.65 10 12.4444V22.5556C10 23.35 10.65 24 11.4444 24H21.5556C22.35 24 23 23.35 23 22.5556V18.2222C23 17.825 22.675 17.5 22.2778 17.5C21.8806 17.5 21.5556 17.825 21.5556 18.2222V21.8333C21.5556 22.2306 21.2306 22.5556 20.8333 22.5556ZM17.9444 11.7222C17.9444 12.1194 18.2694 12.4444 18.6667 12.4444H20.5372L13.9433 19.0383C13.6617 19.32 13.6617 19.775 13.9433 20.0567C14.225 20.3383 14.68 20.3383 14.9617 20.0567L21.5556 13.4628V15.3333C21.5556 15.7306 21.8806 16.0556 22.2778 16.0556C22.675 16.0556 23 15.7306 23 15.3333V11H18.6667C18.2694 11 17.9444 11.325 17.9444 11.7222Z" fill="#454545"/>
</svg>
